<?xml version="1.0" encoding="UTF-8" standalone="no"?>
<svg width="117px" height="60px" viewBox="0 0 117 60" version="1.1" xmlns="http://www.w3.org/2000/svg" xmlns:xlink="http://www.w3.org/1999/xlink" xmlns:sketch="http://www.bohemiancoding.com/sketch/ns">
    <!-- Generator: Sketch 3.0.3 (7891) - http://www.bohemiancoding.com/sketch -->
    <title>vl-ru-logotype</title>
    <desc>Created with Sketch.</desc>
    <defs></defs>
    <g id="Page-1" stroke="none" stroke-width="1" fill="none" fill-rule="evenodd" sketch:type="MSPage">
        <g id="vl-ru-logotype" sketch:type="MSLayerGroup" transform="translate(1.000000, 0.000000)">
            <path d="M79.4583934,27.904492 L74.3171191,27.904492 L74.3171191,56.2270588 L71.746482,56.2270588 C70.3760111,56.2270588 69.2590693,55.1550802 69.1832355,53.8052406 L69.1758449,53.8052406 L69.1758449,27.904492 L64.0345706,27.904492 L64.0345706,52.2895187 C64.0345706,56.542139 67.4875789,59.9900535 71.746482,59.9900535 L79.4583934,59.9900535 L79.4583934,51.0205348 L79.458072,51.0205348 L79.4583934,27.904492" id="Fill-1" fill="#F97D41" sketch:type="MSShapeGroup"></path>
            <path d="M36.2366648,54.8560428 L41.3779391,54.8560428 L41.3779391,59.9807487 L36.2366648,59.9807487 L36.2366648,54.8560428 Z" id="Fill-2" fill="#F97D41" sketch:type="MSShapeGroup"></path>
            <path d="M25.9541163,54.8560428 L25.9541163,27.9041711 L20.8128421,27.9041711 L20.8128421,59.9897326 L32.3807091,59.9897326 L32.3807091,54.8560428 L25.9541163,54.8560428" id="Fill-3" fill="#F97D41" sketch:type="MSShapeGroup"></path>
            <path d="M12.4277452,27.9041711 L8.75141274,46.7897326 L5.07508033,27.9041711 L-0.0661939058,27.9041711 L6.17981163,59.9897326 L11.3230139,59.9897326 L17.5690194,27.9041711 L12.4277452,27.9041711" id="Fill-4" fill="#F97D41" sketch:type="MSShapeGroup"></path>
            <path d="M60.6631801,37.7650267 L60.6631801,35.6047059 C60.6631801,31.3517647 57.2104931,27.9041711 52.9512687,27.9041711 L45.2393573,27.9041711 L45.2393573,59.9897326 L50.3806316,59.9897326 L50.3806316,45.5040642 L52.9512687,45.5040642 C54.3220609,45.5040642 55.4390028,46.5760428 55.5148366,47.9255615 L55.5219058,47.9255615 L55.5219058,59.9897326 L60.6631801,59.9897326 L60.6631801,49.4416043 C60.6631801,47.1064171 59.6207867,45.0154011 57.9768643,43.6033155 C59.6207867,42.1909091 60.6631801,40.1002139 60.6631801,37.7650267 L60.6631801,37.7650267 Z M54.9917119,40.6896257 C54.9778947,40.7075936 54.9084875,40.793262 54.8872798,40.8170053 C54.4174958,41.3586096 53.7259945,41.7025668 52.9512687,41.7025668 L50.3806316,41.7025668 L50.3806316,31.6671658 L52.9512687,31.6671658 C53.7465596,31.6671658 54.4534848,32.0294118 54.92359,32.5960428 C54.9242327,32.5966845 54.9248753,32.5976471 54.9251967,32.5982888 C54.9721108,32.6547594 55.016133,32.7128342 55.0579058,32.7731551 C55.6510803,33.6006417 56.0453518,35.0428877 56.0453518,36.6875936 C56.0453518,38.3929412 55.621518,39.8794652 54.9917119,40.6896257 L54.9917119,40.6896257 Z" id="Fill-5" fill="#F97D41" sketch:type="MSShapeGroup"></path>
            <path d="M113.069152,0.0577540107 C106.741208,0.0577540107 100.846416,1.89304813 95.874482,5.04898396 C92.9304598,6.91764706 90.3106593,9.24802139 88.1214404,11.9441711 C85.4534404,9.95775401 82.3760665,8.49144385 79.0409861,7.68320856 C77.1297175,7.21989305 75.1352244,6.96834225 73.0812853,6.96834225 C72.237795,6.96834225 71.4042659,7.00973262 70.5819834,7.09090909 C73.5896288,7.38673797 76.4385374,8.21647059 79.0409861,9.47454545 C81.7150914,10.7675936 84.1247424,12.5168984 86.1690416,14.6239572 C87.2580277,15.7463102 88.2419391,16.9697326 89.1076011,18.2785027 C89.7158781,17.0120856 90.4025596,15.7909091 91.1657175,14.6233155 C93.529097,11.006631 96.6000443,7.89368984 100.188332,5.48695187 C104.649352,2.49465241 109.902127,0.589090909 115.568133,0.153368984 C114.743601,0.0901604278 113.910072,0.0577540107 113.069152,0.0577540107" id="Fill-6" fill="#0F9AEF" sketch:type="MSShapeGroup"></path>
        </g>
    </g>
</svg>