<svg width="45" height="19" viewBox="0 0 45 19" fill="none" xmlns="http://www.w3.org/2000/svg">
<path fill-rule="evenodd" clip-rule="evenodd" d="M42.4872 0C36.1592 0 30.2644 1.83529 25.2925 4.99123C22.3485 6.85989 19.7287 9.19027 17.5395 11.8864C14.8715 9.9 11.7941 8.43369 8.459 7.62545C6.54773 7.16214 4.55324 6.91059 2.4993 6.91059C1.65581 6.91059 0.822282 6.95198 0 7.03315C3.00765 7.32898 5.85655 8.15872 8.459 9.41679C11.1331 10.7098 13.5428 12.4591 15.5871 14.5662C16.676 15.6886 17.66 16.912 18.5256 18.2207C19.1339 16.9543 19.8206 15.7332 20.5837 14.5656C22.9471 10.9489 26.0181 7.83594 29.6063 5.4292C34.0674 2.4369 39.3201 0.531337 44.9862 0.095615C44.1616 0.0324064 43.3281 0 42.4872 0L16.0035 12.8475L42.4872 0Z" fill="#0F9AEF"/>
</svg>
